<?xml version="1.0" standalone="no"?>
<!DOCTYPE svg PUBLIC "-//W3C//DTD SVG 20010904//EN"
 "http://www.w3.org/TR/2001/REC-SVG-20010904/DTD/svg10.dtd">
<svg version="1.0" xmlns="http://www.w3.org/2000/svg"
 width="500.000000pt" height="500.000000pt" viewBox="0 0 500.000000 500.000000"
 preserveAspectRatio="xMidYMid meet">

<g transform="translate(0.000000,500.000000) scale(0.100000,-0.100000)"
fill="#000000" stroke="none">
<path d="M2634 3801 c-61 -28 -110 -76 -140 -138 -22 -47 -25 -66 -22 -122 8
-140 100 -236 237 -248 73 -7 127 9 184 52 162 124 132 359 -57 451 -61 30
-143 32 -202 5z m187 -77 c41 -21 83 -78 97 -130 30 -111 -65 -230 -186 -233
-49 -1 -118 36 -152 82 -26 35 -30 50 -30 104 0 70 13 104 57 145 60 57 142
70 214 32z"/>
<path d="M548 3085 c-73 -20 -114 -51 -154 -117 l-37 -60 7 -422 c10 -659 12
-673 85 -780 41 -60 93 -98 206 -152 124 -59 191 -74 327 -74 125 0 205 19
279 66 48 30 62 30 114 -1 120 -70 350 -89 501 -41 100 32 183 85 252 161 59
64 90 119 121 214 19 60 21 87 21 362 0 193 4 306 11 322 24 52 117 74 179 42
57 -30 60 -46 60 -362 0 -297 5 -341 42 -421 90 -194 286 -321 531 -343 317
-28 594 104 693 331 52 117 54 135 54 456 1 220 4 303 13 315 29 38 97 34 116
-7 8 -17 11 -165 11 -483 l0 -457 29 -46 c41 -64 119 -102 222 -106 67 -4 83
-1 133 24 31 15 75 47 96 71 l40 43 0 563 0 563 -35 73 c-43 88 -125 174 -207
214 -172 84 -487 89 -686 10 -54 -21 -82 -41 -143 -102 -65 -65 -79 -86 -99
-146 -24 -67 -25 -83 -30 -410 -6 -385 -6 -384 -80 -406 -56 -17 -114 1 -140
44 -19 30 -20 53 -20 445 0 260 -4 429 -11 455 -12 50 -53 112 -92 141 -28 20
-36 21 -552 19 -467 -2 -528 -4 -557 -19 -52 -26 -76 -53 -98 -111 -19 -51
-20 -77 -20 -492 0 -412 -1 -439 -18 -454 -22 -20 -62 -22 -84 -4 -31 23 -36
91 -36 499 -1 454 -3 471 -61 517 -133 104 -308 104 -408 -1 -57 -59 -57 -57
-59 -528 -2 -239 -6 -450 -9 -468 -7 -38 -44 -67 -75 -57 -12 4 -30 21 -41 38
-18 30 -19 55 -19 472 -1 437 -1 440 -23 484 -39 77 -161 142 -261 140 -23 0
-62 -7 -88 -14z"/>
</g>
</svg>
